<svg id="Layer_x0020_1" xmlns="http://www.w3.org/2000/svg" width="24.405" height="24.408" viewBox="0 0 24.405 24.408">
  <g id="_1421344023328" transform="translate(0 0)">
    <path id="Path_751" data-name="Path 751" d="M24.04,15.157A12.2,12.2,0,1,1,15.153.366,12.2,12.2,0,0,1,24.04,15.157h0Z" transform="translate(0 -0.001)" fill="#f7931a"/>
    <path id="Path_752" data-name="Path 752" d="M1007.116,718.964c.243-1.624-.994-2.5-2.684-3.079l.549-2.2-1.339-.334-.534,2.142c-.352-.088-.714-.171-1.073-.253l.538-2.156-1.338-.334-.549,2.2c-.291-.066-.578-.132-.855-.2l0-.007-1.847-.461-.356,1.43s.994.228.973.242a.713.713,0,0,1,.624.779l-.625,2.506a1.09,1.09,0,0,1,.139.045l-.142-.035-.876,3.511a.487.487,0,0,1-.614.318c.013.019-.973-.243-.973-.243l-.665,1.533,1.743.435c.324.081.642.166.955.246l-.554,2.225,1.338.334.549-2.2c.365.1.72.191,1.067.277l-.547,2.191,1.339.334.554-2.221c2.284.432,4,.258,4.723-1.808a2.35,2.35,0,0,0-1.23-3.248,2.136,2.136,0,0,0,1.71-1.966h0Zm-3.06,4.291c-.414,1.663-3.214.764-4.122.539l.735-2.948c.908.227,3.819.675,3.386,2.409Zm.414-4.315c-.378,1.513-2.708.744-3.464.556l.667-2.674c.756.188,3.19.54,2.8,2.118Z" transform="translate(-989.532 -708.498)" fill="#fff"/>
  </g>
</svg>
