<svg xmlns="http://www.w3.org/2000/svg" width="24" height="24" viewBox="0 0 24 24">
  <g id="MDI_shield-link-variant-outline" data-name="MDI / shield-link-variant-outline" transform="translate(-2602 -5430)">
    <g id="Boundary" transform="translate(2602 5430)" fill="#f77d15" stroke="rgba(0,0,0,0)" stroke-width="1" opacity="0">
      <rect width="24" height="24" stroke="none"/>
      <rect x="0.5" y="0.5" width="23" height="23" fill="none"/>
    </g>
    <path id="Path_shield-link-variant-outline" data-name="Path / shield-link-variant-outline" d="M21,11c0,5.55-3.84,10.74-9,12-5.16-1.26-9-6.45-9-12V5l9-4,9,4v6M12,21c3.75-1,7-5.46,7-9.78V6.3L12,3.18,5,6.3v4.92C5,15.54,8.25,20,12,21M14.28,9.73a3.078,3.078,0,0,1,0,4.35L12.26,16.1A3.083,3.083,0,0,1,7.9,11.74L9.15,10.5l-.01.56a3.818,3.818,0,0,0,.22,1.3l.04.14-.36.37a1.4,1.4,0,0,0-.44,1.05,1.46,1.46,0,0,0,.43,1.04,1.513,1.513,0,0,0,2.1.01l2.01-2.02a1.461,1.461,0,0,0,0-2.09.8.8,0,0,1,0-1.14.824.824,0,0,1,1.14.01M18,9.08a3.072,3.072,0,0,1-.9,2.18L15.85,12.5l.01-.56a3.86,3.86,0,0,0-.22-1.3l-.05-.14.37-.37a1.4,1.4,0,0,0,.44-1.05,1.429,1.429,0,0,0-.44-1.04,1.5,1.5,0,0,0-2.09-.01l-2.01,2.02a1.473,1.473,0,0,0-.01,2.09.83.83,0,0,1,.25.57.811.811,0,0,1-.25.57.777.777,0,0,1-.56.22.835.835,0,0,1-.57-.22,3.054,3.054,0,0,1,0-4.36L12.74,6.9A3.08,3.08,0,0,1,18,9.08Z" transform="translate(2602 5430)" fill="#f77d15"/>
  </g>
</svg>
