<svg xmlns="http://www.w3.org/2000/svg" width="22.792" height="20.055" viewBox="0 0 22.792 20.055">
  <g id="polygon-matic-logo" transform="translate(0 0)">
    <path id="Path_763" data-name="Path 763" d="M17.258,6.03a1.516,1.516,0,0,0-1.428,0L12.5,7.993l-2.261,1.25L6.963,11.207a1.516,1.516,0,0,1-1.428,0L2.975,9.66a1.451,1.451,0,0,1-.714-1.25V5.434a1.468,1.468,0,0,1,.714-1.25L5.534,2.7a1.516,1.516,0,0,1,1.428,0L9.522,4.244a1.451,1.451,0,0,1,.714,1.25V7.458L12.5,6.149V4.125a1.468,1.468,0,0,0-.714-1.25L7.022.079a1.516,1.516,0,0,0-1.428,0L.714,2.935A1.309,1.309,0,0,0,0,4.125V9.719a1.468,1.468,0,0,0,.714,1.25l4.82,2.8a1.516,1.516,0,0,0,1.428,0l3.273-1.9L12.5,10.552l3.273-1.9a1.516,1.516,0,0,1,1.428,0l2.559,1.488a1.451,1.451,0,0,1,.714,1.25v2.975a1.468,1.468,0,0,1-.714,1.25l-2.5,1.488a1.516,1.516,0,0,1-1.428,0l-2.559-1.488a1.451,1.451,0,0,1-.714-1.25v-1.9L10.3,13.766V15.73a1.468,1.468,0,0,0,.714,1.25l4.82,2.8a1.516,1.516,0,0,0,1.428,0l4.82-2.8a1.451,1.451,0,0,0,.714-1.25V10.076a1.468,1.468,0,0,0-.714-1.25Z" transform="translate(0 0.1)" fill="#8247e5"/>
  </g>
</svg>
