<svg id="MDI_gift-open" data-name="MDI / gift-open" xmlns="http://www.w3.org/2000/svg" width="24" height="24" viewBox="0 0 24 24">
  <g id="Boundary" fill="#f77d15" stroke="rgba(0,0,0,0)" stroke-width="1" opacity="0">
    <rect width="24" height="24" stroke="none"/>
    <rect x="0.5" y="0.5" width="23" height="23" fill="none"/>
  </g>
  <path id="Path_gift-open" data-name="Path / gift-open" d="M22,10.92,19.26,9.33a3,3,0,0,0-3.18-5.02l-.87.37-.11-.96a2.92,2.92,0,0,0-1.4-2.3A3.007,3.007,0,0,0,9.16,3.5L6.41,1.92a1.986,1.986,0,0,0-2.73.73l-1,1.73a1,1,0,0,0,.37,1.37l7.79,4.5,1.5-2.6,1.73,1-1.5,2.6,7.79,4.5a1.026,1.026,0,0,0,1.37-.37l1-1.73A2,2,0,0,0,22,10.92M12.37,5a.99.99,0,0,1-1.13-1.45,1.006,1.006,0,0,1,1.37-.37A.991.991,0,0,1,12.37,5m5.19,3a.987.987,0,0,1-1.12-1.45A.993.993,0,1,1,17.56,8m3.31,8.88A1.92,1.92,0,0,0,22,16.5V20a1.993,1.993,0,0,1-2,2H4a2,2,0,0,1-2-2V11h8.15l.85.5V20h2V12.65l6.87,3.96A1.9,1.9,0,0,0,20.87,16.88Z" transform="translate(0 0.001)" fill="#f77d15"/>
</svg>
