<svg id="MDI_account-group" data-name="MDI / account-group" xmlns="http://www.w3.org/2000/svg" width="24" height="24" viewBox="0 0 24 24">
  <g id="Boundary" fill="#f77d15" stroke="rgba(0,0,0,0)" stroke-width="1" opacity="0">
    <rect width="24" height="24" stroke="none"/>
    <rect x="0.5" y="0.5" width="23" height="23" fill="none"/>
  </g>
  <path id="Path_account-group" data-name="Path / account-group" d="M12,5.5A3.5,3.5,0,1,1,8.5,9,3.5,3.5,0,0,1,12,5.5M5,8a2.952,2.952,0,0,1,1.53.42,5.536,5.536,0,0,0,1.13,3.96A3,3,0,1,1,5,8M19,8a3,3,0,1,1-2.66,4.38,5.536,5.536,0,0,0,1.13-3.96A2.952,2.952,0,0,1,19,8M5.5,18.25c0-2.07,2.91-3.75,6.5-3.75s6.5,1.68,6.5,3.75V20H5.5V18.25M0,20V18.5c0-1.39,1.89-2.56,4.45-2.9a4.044,4.044,0,0,0-.95,2.65V20H0m24,0H20.5V18.25a4.044,4.044,0,0,0-.95-2.65c2.56.34,4.45,1.51,4.45,2.9Z" transform="translate(0 -0.5)" fill="#f77d15"/>
</svg>
