<svg xmlns="http://www.w3.org/2000/svg" width="28.057" height="24.408" viewBox="0 0 28.057 24.408">
  <g id="tether-usdt-logo" transform="translate(0 0)">
    <path id="Path_759" data-name="Path 759" d="M-513.3,314.1h0Z" transform="translate(529.103 -305.376)" fill="#259c77"/>
    <path id="Path_760" data-name="Path 760" d="M-708.476,320.98c0,.731-2.616,1.342-6.124,1.5h0c-.1.007-.612.038-1.755.038-.909,0-1.555-.027-1.781-.038a24.309,24.309,0,0,1-4.386-.533c-1.1-.264-1.751-.6-1.751-.966,0-.732,2.623-1.343,6.137-1.5v2.39c.23.016.888.055,1.8.055,1.091,0,1.638-.045,1.736-.055v-2.389C-711.094,319.638-708.476,320.249-708.476,320.98Z" transform="translate(730.401 -310.509)" fill="#259c77"/>
    <path id="Path_761" data-name="Path 761" d="M-829.953,134.677l-5.116-10.746a.207.207,0,0,0-.188-.121h-17.4a.206.206,0,0,0-.19.12l-5.116,10.746a.208.208,0,0,0,.044.243l13.817,13.24a.21.21,0,0,0,.292,0L-830,134.92A.209.209,0,0,0-829.953,134.677Zm-12.233,1.683v6.855h-3.536v-6.853c-3.977-.183-6.968-.971-6.968-1.915s2.991-1.732,6.968-1.915V130.4h-4.893v-3.261h13.323V130.4h-4.894v2.137c3.97.184,6.953.971,6.953,1.914S-838.218,136.178-842.186,136.36Z" transform="translate(857.989 -123.81)" fill="#259c77"/>
    <path id="Path_762" data-name="Path 762" d="M-513.3,314.1h0Z" transform="translate(529.103 -305.376)" fill="#259c77"/>
  </g>
</svg>
