<svg xmlns="http://www.w3.org/2000/svg" width="22.895" height="21.69" viewBox="0 0 22.895 21.69">
  <path id="Path_wallet-outline" data-name="Path / wallet-outline" d="M5.41,3A2.409,2.409,0,0,0,3,5.41V22.28a2.41,2.41,0,0,0,2.41,2.41H22.28a2.41,2.41,0,0,0,2.41-2.41V19.532a2.411,2.411,0,0,0,1.2-2.073V10.23a2.411,2.411,0,0,0-1.2-2.073V5.41A2.41,2.41,0,0,0,22.28,3H5.41m0,2.41H22.28V7.82H15.05a2.41,2.41,0,0,0-2.41,2.41v7.23a2.41,2.41,0,0,0,2.41,2.41h7.23v2.41H5.41V5.41m9.64,4.82h8.435v7.23H15.05V10.23m3.615,1.807a1.807,1.807,0,1,0,1.807,1.807A1.807,1.807,0,0,0,18.665,12.037Z" transform="translate(-3 -3)"/>
</svg>
